<?xml version="1.0" encoding="UTF-8" standalone="no"?>
<!-- Created with Inkscape (http://www.inkscape.org/) -->

<svg
   xmlns:dc="http://purl.org/dc/elements/1.1/"
   xmlns:cc="http://creativecommons.org/ns#"
   xmlns:rdf="http://www.w3.org/1999/02/22-rdf-syntax-ns#"
   xmlns:svg="http://www.w3.org/2000/svg"
   xmlns="http://www.w3.org/2000/svg"
   xmlns:sodipodi="http://sodipodi.sourceforge.net/DTD/sodipodi-0.dtd"
   xmlns:inkscape="http://www.inkscape.org/namespaces/inkscape"
   width="900"
   height="400"
   viewBox="0 0 238.12501 105.83333"
   version="1.1"
   id="svg8"
   inkscape:version="0.92.3 (2405546, 2018-03-11)"
   sodipodi:docname="logo.svg">
  <defs
     id="defs2" />
  <sodipodi:namedview
     id="base"
     pagecolor="#ffffff"
     bordercolor="#666666"
     borderopacity="1.0"
     inkscape:pageopacity="0.0"
     inkscape:pageshadow="2"
     inkscape:zoom="1.4"
     inkscape:cx="357.91276"
     inkscape:cy="218.9832"
     inkscape:document-units="mm"
     inkscape:current-layer="layer1"
     showgrid="false"
     units="px"
     inkscape:window-width="1920"
     inkscape:window-height="996"
     inkscape:window-x="0"
     inkscape:window-y="0"
     inkscape:window-maximized="1" />
  <metadata
     id="metadata5">
    <rdf:RDF>
      <cc:Work
         rdf:about="">
        <dc:format>image/svg+xml</dc:format>
        <dc:type
           rdf:resource="http://purl.org/dc/dcmitype/StillImage" />
        <dc:title></dc:title>
      </cc:Work>
    </rdf:RDF>
  </metadata>
  <g
     inkscape:label="Ebene 1"
     inkscape:groupmode="layer"
     id="layer1"
     transform="translate(0,-191.16668)">
    <g
       transform="matrix(0.75519228,0,0,0.75519228,80.774251,186.85777)"
       id="g163"
       style="image-rendering:auto;fill:#000000">
      <path
         inkscape:connector-curvature="0"
         id="path145"
         d="m 71.2,76.1 c 0,0.5 0.4,1 1,1 h 13.3 c 0.6,0 1,-0.5 1,-1 0,-0.5 -0.4,-1 -1,-1 H 72.2 c -0.6,0 -1,0.5 -1,1 z"
         style="fill:#000000" />
      <path
         inkscape:connector-curvature="0"
         id="path147"
         d="M 82.4,65.3 H 69.1 c -0.6,0 -1,0.4 -1,1 0,0.5 0.4,1 1,1 h 13.3 c 0.5,0 1,-0.5 1,-1 0,-0.6 -0.5,-1 -1,-1 z"
         style="fill:#000000" />
      <path
         inkscape:connector-curvature="0"
         id="path149"
         d="m 63.2,76.1 c 0,0.5 0.5,1 1,1 h 2.9 c 0.6,0 1,-0.5 1,-1 0,-0.5 -0.4,-1 -1,-1 h -2.9 c -0.6,0 -1,0.5 -1,1 z"
         style="fill:#000000" />
      <path
         inkscape:connector-curvature="0"
         id="path151"
         d="m 63.8,65.3 h -2.9 c -0.5,0 -1,0.4 -1,1 0,0.5 0.5,1 1,1 h 2.9 c 0.6,0 1,-0.5 1,-1 0,-0.6 -0.5,-1 -1,-1 z"
         style="fill:#000000" />
      <path
         inkscape:connector-curvature="0"
         id="path153"
         d="m 58.9,77.1 c 0.5,0 1,-0.5 1,-1 0,-0.5 -0.5,-1 -1,-1 H 45.6 c -0.5,0 -1,0.5 -1,1 0,0.5 0.5,1 1,1 z"
         style="fill:#000000" />
      <path
         inkscape:connector-curvature="0"
         id="path155"
         d="m 36.9,72.7 c 0.5,0 1,-0.5 1,-1 0,-0.5 -0.5,-1 -1,-1 H 23.6 c -0.5,0 -1,0.5 -1,1 0,0.5 0.5,1 1,1 z"
         style="fill:#000000" />
      <path
         inkscape:connector-curvature="0"
         id="path157"
         d="m 18.3,72.7 c 0.5,0 1,-0.5 1,-1 0,-0.5 -0.5,-1 -1,-1 h -2.9 c -0.5,0 -1,0.5 -1,1 0,0.5 0.5,1 1,1 z"
         style="fill:#000000" />
      <path
         inkscape:connector-curvature="0"
         id="path159"
         d="m 16.9,56.1 c -0.3,0 -0.5,0.1 -0.7,0.3 -0.4,0.4 -0.4,1.1 0,1.5 0.4,0.4 1.1,0.4 1.5,0 0.2,-0.2 0.3,-0.5 0.3,-0.7 0,-0.2 -0.1,-0.5 -0.3,-0.7 -0.3,-0.3 -0.6,-0.4 -0.8,-0.4 z"
         style="fill:#000000" />
      <path
         inkscape:connector-curvature="0"
         id="path161"
         d="m 92.3,37.7 -2.1,-0.2 c -8.7,-0.9 -17.6,-5.7 -17.8,-5.8 -11,-5.1 -22.6,-6.9 -23.5,-7 -1.5,-1.5 -3.5,-2.3 -5.5,-2.3 -2.1,0 -4.1,0.8 -5.6,2.3 L 11.4,51.2 c -1.5,1.5 -2.3,3.5 -2.3,5.5 0,2.1 0.8,4.1 2.3,5.6 1.5,1.5 3.5,2.3 5.5,2.3 2.1,0 4.1,-0.8 5.6,-2.3 l 12.8,-12.8 5,5 c 0,0.2 -0.2,0.9 -0.3,1.3 -0.4,1.2 -1,3 0.3,4.3 1.4,1.4 3.2,0.8 4.3,0.3 0.4,-0.1 0.9,-0.3 1.2,-0.3 0,0.3 -0.2,0.9 -0.3,1.2 -0.4,1.2 -1,3 0.3,4.4 1.4,1.4 3.2,0.8 4.3,0.3 0.4,-0.1 0.9,-0.3 1.2,-0.3 0,0.3 -0.2,0.9 -0.3,1.2 -0.4,1.2 -1,3 0.3,4.4 l 2.2,-2 c 0,-0.2 0.2,-0.9 0.3,-1.3 0.4,-1.2 1,-3 -0.3,-4.4 -1.4,-1.4 -3.2,-0.8 -4.4,-0.3 -0.3,0.1 -0.9,0.3 -1.2,0.3 0,-0.3 0.2,-0.9 0.3,-1.2 0.4,-1.2 1,-3 -0.3,-4.4 -1.4,-1.3 -3.2,-0.7 -4.4,-0.3 -0.4,0.1 -0.9,0.3 -1.2,0.3 0,-0.3 0.2,-0.9 0.3,-1.2 0.4,-1.2 1,-3 -0.3,-4.3 l -5,-5 6.8,-6.8 c 2.1,3 6,8.4 9.4,12.1 2.6,2.9 5.4,3.6 7.5,3.6 2.1,0 3.6,-0.7 3.7,-0.8 L 66,55 65,54 c -3.6,-3.5 -5.9,-8.8 -6,-8.9 -0.2,-0.3 -0.3,-0.6 -0.5,-0.9 4.9,1.3 10.3,2.6 14.9,3.4 1.3,0.2 2.5,0.3 3.6,0.3 10.4,0 14.4,-8.1 14.4,-8.2 z M 19,59.3 c -0.6,0.6 -1.3,0.9 -2.2,0.9 -0.8,0 -1.6,-0.3 -2.2,-0.9 -1.2,-1.2 -1.2,-3.1 0,-4.3 1.2,-1.1 3.2,-1.1 4.3,0 0.6,0.6 0.9,1.3 0.9,2.2 0.1,0.8 -0.2,1.6 -0.8,2.1 z M 45.4,32.6 c -0.6,0.6 -1.3,0.9 -2.2,0.9 -0.8,0 -1.6,-0.3 -2.2,-0.9 -1.2,-1.2 -1.2,-3.1 0,-4.3 1.2,-1.2 3.2,-1.2 4.3,0 0.6,0.6 0.9,1.3 0.9,2.2 0.1,0.7 -0.3,1.5 -0.8,2.1 z m 28.5,12 C 64.9,43.1 52.6,39.4 47.1,37.7 L 49,35.8 c 1.5,-1.5 2.3,-3.5 2.3,-5.6 0,-0.8 -0.1,-1.5 -0.3,-2.2 4,0.8 12.4,2.7 20.1,6.3 0.3,0.2 8,4.3 16.4,5.7 -1.8,2.4 -6,5.8 -13.6,4.6 z"
         style="fill:#000000" />
    </g>
    <text
       xml:space="preserve"
       style="font-style:normal;font-variant:normal;font-weight:normal;font-stretch:normal;font-size:19.35409546px;line-height:1.25;font-family:Bungee;-inkscape-font-specification:'Bungee, Normal';font-variant-ligatures:normal;font-variant-caps:normal;font-variant-numeric:normal;font-feature-settings:normal;text-align:center;letter-spacing:0px;word-spacing:0px;writing-mode:lr-tb;text-anchor:middle;fill:#ff7f2a;fill-opacity:1;stroke:none;stroke-width:0.48385251"
       x="118.87183"
       y="269.38266"
       id="text75"><tspan
         sodipodi:role="line"
         x="118.87183"
         y="269.38266"
         id="tspan73"
         style="stroke-width:0.48385251"><tspan
           x="118.87183"
           y="269.38266"
           id="tspan71"
           style="stroke-width:0.48385251">PocketKnife</tspan></tspan></text>
    <text
       xml:space="preserve"
       style="font-style:normal;font-variant:normal;font-weight:normal;font-stretch:normal;font-size:7.05555582px;line-height:1.25;font-family:Bungee;-inkscape-font-specification:'Bungee, Normal';font-variant-ligatures:normal;font-variant-caps:normal;font-variant-numeric:normal;font-feature-settings:normal;text-align:start;letter-spacing:0px;word-spacing:0px;writing-mode:lr-tb;text-anchor:start;fill:#000000;fill-opacity:1;stroke:none;stroke-width:0.26458332"
       x="64.504257"
       y="278.24728"
       id="text81"><tspan
         sodipodi:role="line"
         x="64.504257"
         y="278.24728"
         id="tspan79"
         style="stroke-width:0.26458332"><tspan
           x="64.504257"
           y="278.24728"
           id="tspan77"
           style="stroke-width:0.26458332">Bukkit Plugins made easy</tspan></tspan></text>
  </g>
</svg>
