<?xml version="1.0" encoding="UTF-8" standalone="no"?>
<svg
   xmlns:dc="http://purl.org/dc/elements/1.1/"
   xmlns:cc="http://creativecommons.org/ns#"
   xmlns:rdf="http://www.w3.org/1999/02/22-rdf-syntax-ns#"
   xmlns:svg="http://www.w3.org/2000/svg"
   xmlns="http://www.w3.org/2000/svg"
   id="svg8"
   version="1.1"
   viewBox="0 0 238.12501 105.83333"
   height="400"
   width="900">
  <defs
     id="defs2" />
  <metadata
     id="metadata5">
    <rdf:RDF>
      <cc:Work
         rdf:about="">
        <dc:format>image/svg+xml</dc:format>
        <dc:type
           rdf:resource="http://purl.org/dc/dcmitype/StillImage" />
        <dc:title></dc:title>
      </cc:Work>
    </rdf:RDF>
  </metadata>
  <g
     transform="translate(0,-191.16668)"
     id="layer1">
    <g
       style="image-rendering:auto;fill:#000000"
       id="g163"
       transform="matrix(0.75519228,0,0,0.75519228,80.774251,186.85777)">
      <path
         style="fill:#000000"
         d="m 71.2,76.1 c 0,0.5 0.4,1 1,1 h 13.3 c 0.6,0 1,-0.5 1,-1 0,-0.5 -0.4,-1 -1,-1 H 72.2 c -0.6,0 -1,0.5 -1,1 z"
         id="path145" />
      <path
         style="fill:#000000"
         d="M 82.4,65.3 H 69.1 c -0.6,0 -1,0.4 -1,1 0,0.5 0.4,1 1,1 h 13.3 c 0.5,0 1,-0.5 1,-1 0,-0.6 -0.5,-1 -1,-1 z"
         id="path147" />
      <path
         style="fill:#000000"
         d="m 63.2,76.1 c 0,0.5 0.5,1 1,1 h 2.9 c 0.6,0 1,-0.5 1,-1 0,-0.5 -0.4,-1 -1,-1 h -2.9 c -0.6,0 -1,0.5 -1,1 z"
         id="path149" />
      <path
         style="fill:#000000"
         d="m 63.8,65.3 h -2.9 c -0.5,0 -1,0.4 -1,1 0,0.5 0.5,1 1,1 h 2.9 c 0.6,0 1,-0.5 1,-1 0,-0.6 -0.5,-1 -1,-1 z"
         id="path151" />
      <path
         style="fill:#000000"
         d="m 58.9,77.1 c 0.5,0 1,-0.5 1,-1 0,-0.5 -0.5,-1 -1,-1 H 45.6 c -0.5,0 -1,0.5 -1,1 0,0.5 0.5,1 1,1 z"
         id="path153" />
      <path
         style="fill:#000000"
         d="m 36.9,72.7 c 0.5,0 1,-0.5 1,-1 0,-0.5 -0.5,-1 -1,-1 H 23.6 c -0.5,0 -1,0.5 -1,1 0,0.5 0.5,1 1,1 z"
         id="path155" />
      <path
         style="fill:#000000"
         d="m 18.3,72.7 c 0.5,0 1,-0.5 1,-1 0,-0.5 -0.5,-1 -1,-1 h -2.9 c -0.5,0 -1,0.5 -1,1 0,0.5 0.5,1 1,1 z"
         id="path157" />
      <path
         style="fill:#000000"
         d="m 16.9,56.1 c -0.3,0 -0.5,0.1 -0.7,0.3 -0.4,0.4 -0.4,1.1 0,1.5 0.4,0.4 1.1,0.4 1.5,0 0.2,-0.2 0.3,-0.5 0.3,-0.7 0,-0.2 -0.1,-0.5 -0.3,-0.7 -0.3,-0.3 -0.6,-0.4 -0.8,-0.4 z"
         id="path159" />
      <path
         style="fill:#000000"
         d="m 92.3,37.7 -2.1,-0.2 c -8.7,-0.9 -17.6,-5.7 -17.8,-5.8 -11,-5.1 -22.6,-6.9 -23.5,-7 -1.5,-1.5 -3.5,-2.3 -5.5,-2.3 -2.1,0 -4.1,0.8 -5.6,2.3 L 11.4,51.2 c -1.5,1.5 -2.3,3.5 -2.3,5.5 0,2.1 0.8,4.1 2.3,5.6 1.5,1.5 3.5,2.3 5.5,2.3 2.1,0 4.1,-0.8 5.6,-2.3 l 12.8,-12.8 5,5 c 0,0.2 -0.2,0.9 -0.3,1.3 -0.4,1.2 -1,3 0.3,4.3 1.4,1.4 3.2,0.8 4.3,0.3 0.4,-0.1 0.9,-0.3 1.2,-0.3 0,0.3 -0.2,0.9 -0.3,1.2 -0.4,1.2 -1,3 0.3,4.4 1.4,1.4 3.2,0.8 4.3,0.3 0.4,-0.1 0.9,-0.3 1.2,-0.3 0,0.3 -0.2,0.9 -0.3,1.2 -0.4,1.2 -1,3 0.3,4.4 l 2.2,-2 c 0,-0.2 0.2,-0.9 0.3,-1.3 0.4,-1.2 1,-3 -0.3,-4.4 -1.4,-1.4 -3.2,-0.8 -4.4,-0.3 -0.3,0.1 -0.9,0.3 -1.2,0.3 0,-0.3 0.2,-0.9 0.3,-1.2 0.4,-1.2 1,-3 -0.3,-4.4 -1.4,-1.3 -3.2,-0.7 -4.4,-0.3 -0.4,0.1 -0.9,0.3 -1.2,0.3 0,-0.3 0.2,-0.9 0.3,-1.2 0.4,-1.2 1,-3 -0.3,-4.3 l -5,-5 6.8,-6.8 c 2.1,3 6,8.4 9.4,12.1 2.6,2.9 5.4,3.6 7.5,3.6 2.1,0 3.6,-0.7 3.7,-0.8 L 66,55 65,54 c -3.6,-3.5 -5.9,-8.8 -6,-8.9 -0.2,-0.3 -0.3,-0.6 -0.5,-0.9 4.9,1.3 10.3,2.6 14.9,3.4 1.3,0.2 2.5,0.3 3.6,0.3 10.4,0 14.4,-8.1 14.4,-8.2 z M 19,59.3 c -0.6,0.6 -1.3,0.9 -2.2,0.9 -0.8,0 -1.6,-0.3 -2.2,-0.9 -1.2,-1.2 -1.2,-3.1 0,-4.3 1.2,-1.1 3.2,-1.1 4.3,0 0.6,0.6 0.9,1.3 0.9,2.2 0.1,0.8 -0.2,1.6 -0.8,2.1 z M 45.4,32.6 c -0.6,0.6 -1.3,0.9 -2.2,0.9 -0.8,0 -1.6,-0.3 -2.2,-0.9 -1.2,-1.2 -1.2,-3.1 0,-4.3 1.2,-1.2 3.2,-1.2 4.3,0 0.6,0.6 0.9,1.3 0.9,2.2 0.1,0.7 -0.3,1.5 -0.8,2.1 z m 28.5,12 C 64.9,43.1 52.6,39.4 47.1,37.7 L 49,35.8 c 1.5,-1.5 2.3,-3.5 2.3,-5.6 0,-0.8 -0.1,-1.5 -0.3,-2.2 4,0.8 12.4,2.7 20.1,6.3 0.3,0.2 8,4.3 16.4,5.7 -1.8,2.4 -6,5.8 -13.6,4.6 z"
         id="path161" />
    </g>
    <g
       id="text75"
       style="font-style:normal;font-variant:normal;font-weight:normal;font-stretch:normal;font-size:19.35409546px;line-height:1.25;font-family:Bungee;-inkscape-font-specification:'Bungee, Normal';font-variant-ligatures:normal;font-variant-caps:normal;font-variant-numeric:normal;font-feature-settings:normal;text-align:center;letter-spacing:0px;word-spacing:0px;writing-mode:lr-tb;text-anchor:middle;fill:#ff7f2a;fill-opacity:1;stroke:none;stroke-width:0.48385251"
       aria-label="PocketKnife">
      <path
         id="path163"
         style="stroke-width:0.48385251"
         d="m 51.515045,269.38266 h -2.999884 q -0.367728,0 -0.541915,-0.15483 -0.154833,-0.17419 -0.154833,-0.54192 v -12.54145 q 0,-0.36773 0.154833,-0.52256 0.174187,-0.17419 0.541915,-0.17419 h 5.922353 q 2.632157,0 3.599862,1.04512 0.967704,1.04512 0.967704,2.72893 v 2.47732 q 0,1.68381 -0.967704,2.72893 -0.967705,1.04512 -3.599862,1.04512 h -2.225721 v 3.21278 q 0,0.36773 -0.174187,0.54192 -0.154833,0.15483 -0.522561,0.15483 z m 0.65804,-10.31573 v 2.92247 h 1.741868 q 0.561269,0 0.735456,-0.29032 0.174187,-0.29031 0.174187,-0.65804 v -1.02576 q 0,-0.36773 -0.174187,-0.65804 -0.174187,-0.29031 -0.735456,-0.29031 z" />
      <path
         id="path165"
         style="stroke-width:0.48385251"
         d="m 72.816949,265.72474 q 0,0.89028 -0.270958,1.62574 -0.251603,0.7161 -0.928996,1.23866 -0.658039,0.50321 -1.838639,0.79352 -1.161246,0.29031 -2.961177,0.29031 -1.799931,0 -2.980531,-0.29031 -1.180599,-0.29031 -1.857993,-0.79352 -0.658039,-0.52256 -0.928996,-1.23866 -0.251603,-0.73546 -0.251603,-1.62574 v -6.59975 q 0,-0.89029 0.251603,-1.60639 0.270957,-0.73546 0.928996,-1.25802 0.677394,-0.52256 1.857993,-0.81287 1.1806,-0.29031 2.980531,-0.29031 1.799931,0 2.961177,0.29031 1.1806,0.29031 1.838639,0.81287 0.677393,0.52256 0.928996,1.25802 0.270958,0.7161 0.270958,1.60639 z m -7.625514,-0.69675 q 0,0.38708 0.290312,0.65804 0.290311,0.2516 1.335432,0.2516 1.045121,0 1.335433,-0.2516 0.290311,-0.27096 0.290311,-0.65804 v -5.20625 q 0,-0.36773 -0.290311,-0.61933 -0.290312,-0.27096 -1.335433,-0.27096 -1.045121,0 -1.335432,0.27096 -0.290312,0.2516 -0.290312,0.61933 z" />
      <path
         id="path167"
         style="stroke-width:0.48385251"
         d="m 84.532527,269.38266 h -4.722399 q -2.419262,0 -3.599862,-0.9677 -1.161245,-0.96771 -1.161245,-2.98054 v -6.01912 q 0,-2.01283 1.161245,-2.98053 1.1806,-0.98706 3.599862,-0.98706 h 4.722399 q 0.367728,0 0.522561,0.17419 0.174187,0.15483 0.174187,0.52256 v 2.34184 q 0,0.36773 -0.174187,0.54192 -0.154833,0.15483 -0.522561,0.15483 h -3.890173 q -0.599977,0 -0.890288,0.2516 -0.290312,0.23225 -0.290312,0.71611 v 4.60627 q 0,0.48385 0.290312,0.7161 0.290311,0.2129 0.890288,0.2129 h 3.890173 q 0.367728,0 0.522561,0.17418 0.174187,0.15484 0.174187,0.52257 v 2.30313 q 0,0.36773 -0.174187,0.54192 -0.154833,0.15483 -0.522561,0.15483 z" />
      <path
         id="path169"
         style="stroke-width:0.48385251"
         d="m 91.130459,269.38266 h -2.999885 q -0.367727,0 -0.541914,-0.15483 -0.154833,-0.17419 -0.154833,-0.54192 v -12.54145 q 0,-0.36773 0.154833,-0.52256 0.174187,-0.17419 0.541914,-0.17419 h 2.999885 q 0.367728,0 0.522561,0.17419 0.174187,0.15483 0.174187,0.52256 v 4.45144 h 0.774163 l 1.993472,-4.5095 q 0.135479,-0.34838 0.367728,-0.48386 0.232249,-0.15483 0.599977,-0.15483 h 2.980531 q 0.329019,0 0.445144,0.17419 0.116124,0.15483 -0.01935,0.4645 l -1.974118,4.5095 q 1.083829,0.0581 1.722515,0.77416 0.658039,0.69675 0.658039,1.858 v 5.45785 q 0,0.36773 -0.174187,0.54192 -0.154833,0.15483 -0.522561,0.15483 h -2.98053 q -0.367728,0 -0.541915,-0.15483 -0.154833,-0.17419 -0.154833,-0.54192 v -3.77405 q 0,-0.30966 -0.154833,-0.48385 -0.154832,-0.17419 -0.464498,-0.17419 h -2.55474 v 4.43209 q 0,0.36773 -0.174187,0.54192 -0.154833,0.15483 -0.522561,0.15483 z" />
      <path
         id="path171"
         style="stroke-width:0.48385251"
         d="m 111.55084,269.38266 h -8.9803 q -0.36773,0 -0.54191,-0.15483 -0.15483,-0.17419 -0.15483,-0.54192 v -12.54145 q 0,-0.36773 0.15483,-0.52256 0.17418,-0.17419 0.54191,-0.17419 h 8.9803 q 0.36773,0 0.52256,0.17419 0.17419,0.15483 0.17419,0.52256 v 2.26443 q 0,0.36773 -0.17419,0.54191 -0.15483,0.15484 -0.52256,0.15484 h -5.34173 v 1.49026 h 3.77405 q 0.36773,0 0.52256,0.17419 0.17419,0.15483 0.17419,0.52256 v 2.07089 q 0,0.36772 -0.17419,0.54191 -0.15483,0.15483 -0.52256,0.15483 h -3.77405 v 1.66446 h 5.34173 q 0.36773,0 0.52256,0.17418 0.17419,0.15484 0.17419,0.52256 v 2.26443 q 0,0.36773 -0.17419,0.54192 -0.15483,0.15483 -0.52256,0.15483 z" />
      <path
         id="path173"
         style="stroke-width:0.48385251"
         d="m 121.11751,269.38266 h -3.13536 q -0.36773,0 -0.54192,-0.15483 -0.15483,-0.17419 -0.15483,-0.54192 v -9.50286 h -2.84505 q -0.36773,0 -0.54192,-0.15483 -0.15483,-0.17419 -0.15483,-0.54192 v -2.34184 q 0,-0.36773 0.15483,-0.52256 0.17419,-0.17419 0.54192,-0.17419 h 10.21896 q 0.36773,0 0.52256,0.17419 0.17419,0.15483 0.17419,0.52256 v 2.34184 q 0,0.36773 -0.17419,0.54192 -0.15483,0.15483 -0.52256,0.15483 h -2.84505 v 9.50286 q 0,0.36773 -0.17419,0.54192 -0.15483,0.15483 -0.52256,0.15483 z" />
      <path
         id="path175"
         style="stroke-width:0.48385251"
         d="m 130.93488,269.38266 h -2.99989 q -0.36773,0 -0.54191,-0.15483 -0.15484,-0.17419 -0.15484,-0.54192 v -12.54145 q 0,-0.36773 0.15484,-0.52256 0.17418,-0.17419 0.54191,-0.17419 h 2.99989 q 0.36772,0 0.52256,0.17419 0.17418,0.15483 0.17418,0.52256 v 4.45144 h 0.77417 l 1.99347,-4.5095 q 0.13548,-0.34838 0.36773,-0.48386 0.23225,-0.15483 0.59997,-0.15483 h 2.98053 q 0.32902,0 0.44515,0.17419 0.11612,0.15483 -0.0194,0.4645 l -1.97411,4.5095 q 1.08383,0.0581 1.72251,0.77416 0.65804,0.69675 0.65804,1.858 v 5.45785 q 0,0.36773 -0.17419,0.54192 -0.15483,0.15483 -0.52256,0.15483 h -2.98053 q -0.36773,0 -0.54191,-0.15483 -0.15484,-0.17419 -0.15484,-0.54192 v -3.77405 q 0,-0.30966 -0.15483,-0.48385 -0.15483,-0.17419 -0.4645,-0.17419 h -2.55474 v 4.43209 q 0,0.36773 -0.17418,0.54192 -0.15484,0.15483 -0.52256,0.15483 z" />
      <path
         id="path177"
         style="stroke-width:0.48385251"
         d="m 145.27808,269.38266 h -2.90312 q -0.36772,0 -0.54191,-0.15483 -0.15483,-0.17419 -0.15483,-0.54192 v -12.54145 q 0,-0.36773 0.15483,-0.52256 0.17419,-0.17419 0.54191,-0.17419 h 2.01283 q 0.36773,0 0.61933,0.11613 0.27096,0.11612 0.52256,0.40643 l 3.7547,4.29661 v -4.12242 q 0,-0.36773 0.15483,-0.52256 0.17418,-0.17419 0.54191,-0.17419 h 2.90312 q 0.36772,0 0.52256,0.17419 0.17418,0.15483 0.17418,0.52256 v 12.54145 q 0,0.36773 -0.17418,0.54192 -0.15484,0.15483 -0.52256,0.15483 h -2.90312 q -0.36773,0 -0.54191,-0.15483 -0.15483,-0.17419 -0.15483,-0.54192 v -2.38055 l -3.30956,-4.0063 v 6.38685 q 0,0.36773 -0.17418,0.54192 -0.15483,0.15483 -0.52256,0.15483 z" />
      <path
         id="path179"
         style="stroke-width:0.48385251"
         d="m 156.65647,269.38266 q -0.36773,0 -0.54192,-0.15483 -0.15483,-0.17419 -0.15483,-0.54192 v -2.30313 q 0,-0.36773 0.15483,-0.52257 0.17419,-0.17418 0.54192,-0.17418 h 1.91605 v -6.50298 h -1.91605 q -0.36773,0 -0.54192,-0.15483 -0.15483,-0.17419 -0.15483,-0.54192 v -2.34184 q 0,-0.36773 0.15483,-0.52256 0.17419,-0.17419 0.54192,-0.17419 h 8.24484 q 0.36773,0 0.52256,0.17419 0.17419,0.15483 0.17419,0.52256 v 2.34184 q 0,0.36773 -0.17419,0.54192 -0.15483,0.15483 -0.52256,0.15483 h -1.87734 v 6.50298 h 1.87734 q 0.36773,0 0.52256,0.17418 0.17419,0.15484 0.17419,0.52257 v 2.30313 q 0,0.36773 -0.17419,0.54192 -0.15483,0.15483 -0.52256,0.15483 z" />
      <path
         id="path181"
         style="stroke-width:0.48385251"
         d="m 171.68432,269.38266 h -2.99989 q -0.36772,0 -0.54191,-0.15483 -0.15483,-0.17419 -0.15483,-0.54192 v -12.54145 q 0,-0.36773 0.15483,-0.52256 0.17419,-0.17419 0.54191,-0.17419 h 8.63193 q 0.36773,0 0.52256,0.17419 0.17419,0.15483 0.17419,0.52256 v 2.30314 q 0,0.36772 -0.17419,0.54191 -0.15483,0.15483 -0.52256,0.15483 h -4.93529 v 2.01283 h 3.36761 q 0.36773,0 0.52256,0.17419 0.17419,0.15483 0.17419,0.52256 v 2.32249 q 0,0.36773 -0.17419,0.54191 -0.15483,0.15484 -0.52256,0.15484 h -3.36761 v 3.81275 q 0,0.36773 -0.17419,0.54192 -0.15483,0.15483 -0.52256,0.15483 z" />
      <path
         id="path183"
         style="stroke-width:0.48385251"
         d="m 189.60984,269.38266 h -8.9803 q -0.36773,0 -0.54191,-0.15483 -0.15484,-0.17419 -0.15484,-0.54192 v -12.54145 q 0,-0.36773 0.15484,-0.52256 0.17418,-0.17419 0.54191,-0.17419 h 8.9803 q 0.36773,0 0.52256,0.17419 0.17419,0.15483 0.17419,0.52256 v 2.26443 q 0,0.36773 -0.17419,0.54191 -0.15483,0.15484 -0.52256,0.15484 h -5.34173 v 1.49026 h 3.77405 q 0.36773,0 0.52256,0.17419 0.17419,0.15483 0.17419,0.52256 v 2.07089 q 0,0.36772 -0.17419,0.54191 -0.15483,0.15483 -0.52256,0.15483 h -3.77405 v 1.66446 h 5.34173 q 0.36773,0 0.52256,0.17418 0.17419,0.15484 0.17419,0.52256 v 2.26443 q 0,0.36773 -0.17419,0.54192 -0.15483,0.15483 -0.52256,0.15483 z" />
    </g>
    <g
       id="text81"
       style="font-style:normal;font-variant:normal;font-weight:normal;font-stretch:normal;font-size:7.05555582px;line-height:1.25;font-family:Bungee;-inkscape-font-specification:'Bungee, Normal';font-variant-ligatures:normal;font-variant-caps:normal;font-variant-numeric:normal;font-feature-settings:normal;text-align:start;letter-spacing:0px;word-spacing:0px;writing-mode:lr-tb;text-anchor:start;fill:#000000;fill-opacity:1;stroke:none;stroke-width:0.26458332"
       aria-label="Bukkit Plugins made easy">
      <path
         id="path120"
         style="stroke-width:0.26458332"
         d="m 67.954424,278.24728 h -2.709333 q -0.134056,0 -0.197556,-0.0564 -0.05644,-0.0635 -0.05644,-0.19756 v -4.572 q 0,-0.13405 0.05644,-0.1905 0.0635,-0.0635 0.197556,-0.0635 h 2.250722 q 0.691444,0 1.023055,0.26811 0.331612,0.26106 0.331612,0.81139 v 0.33867 q 0,0.29633 -0.105834,0.48683 -0.09878,0.18345 -0.310444,0.27517 0.451555,0.0423 0.670278,0.31044 0.218722,0.26812 0.218722,0.78317 v 0.64911 q 0,0.59267 -0.338667,0.87489 -0.331611,0.28222 -1.030111,0.28222 z m -1.375833,-3.88055 v 0.762 h 0.599722 q 0.134055,0 0.197555,-0.0706 0.07056,-0.0706 0.07056,-0.21166 v -0.19756 q 0,-0.14111 -0.07056,-0.21167 -0.0635,-0.0705 -0.197555,-0.0705 z m 0,1.84855 v 0.83256 h 0.917222 q 0.134055,0 0.197555,-0.0706 0.07056,-0.0706 0.07056,-0.21166 v -0.27517 q 0,-0.14111 -0.07056,-0.20461 -0.0635,-0.0706 -0.197555,-0.0706 z" />
      <path
         id="path122"
         style="stroke-width:0.26458332"
         d="m 74.428668,276.91378 q 0,0.32456 -0.09878,0.59267 -0.09172,0.26106 -0.338667,0.45156 -0.239889,0.18344 -0.663222,0.28927 -0.423334,0.10584 -1.0795,0.10584 -0.656167,0 -1.0795,-0.10584 -0.423334,-0.10583 -0.670278,-0.28927 -0.239889,-0.1905 -0.338667,-0.45156 -0.09172,-0.26811 -0.09172,-0.59267 v -3.4925 q 0,-0.13405 0.05644,-0.1905 0.0635,-0.0635 0.197556,-0.0635 h 1.107722 q 0.134056,0 0.1905,0.0635 0.0635,0.0565 0.0635,0.1905 v 3.21734 q 0,0.14111 0.105834,0.23989 0.105833,0.0917 0.472722,0.0917 0.373944,0 0.479778,-0.0917 0.105833,-0.0988 0.105833,-0.23989 v -3.21734 q 0,-0.13405 0.05644,-0.1905 0.0635,-0.0635 0.197556,-0.0635 h 1.072444 q 0.134056,0 0.1905,0.0635 0.0635,0.0565 0.0635,0.1905 z" />
      <path
         id="path124"
         style="stroke-width:0.26458332"
         d="m 76.715331,278.24728 h -1.093612 q -0.134055,0 -0.197555,-0.0564 -0.05645,-0.0635 -0.05645,-0.19756 v -4.572 q 0,-0.13405 0.05645,-0.1905 0.0635,-0.0635 0.197555,-0.0635 h 1.093612 q 0.134055,0 0.1905,0.0635 0.0635,0.0565 0.0635,0.1905 v 1.62278 h 0.282222 l 0.726722,-1.64394 q 0.04939,-0.127 0.134056,-0.17639 0.08467,-0.0564 0.218722,-0.0564 h 1.086555 q 0.119945,0 0.162278,0.0635 0.04233,0.0565 -0.0071,0.16934 l -0.719667,1.64394 q 0.395111,0.0212 0.627944,0.28222 0.239889,0.254 0.239889,0.67734 v 1.98966 q 0,0.13406 -0.0635,0.19756 -0.05644,0.0564 -0.1905,0.0564 h -1.086555 q -0.134056,0 -0.197556,-0.0564 -0.05644,-0.0635 -0.05644,-0.19756 v -1.37583 q 0,-0.11289 -0.05644,-0.17639 -0.05644,-0.0635 -0.169333,-0.0635 h -0.931333 v 1.61572 q 0,0.13406 -0.0635,0.19756 -0.05645,0.0564 -0.1905,0.0564 z" />
      <path
         id="path126"
         style="stroke-width:0.26458332"
         d="m 81.979436,278.24728 h -1.093611 q -0.134055,0 -0.197555,-0.0564 -0.05644,-0.0635 -0.05644,-0.19756 v -4.572 q 0,-0.13405 0.05644,-0.1905 0.0635,-0.0635 0.197555,-0.0635 h 1.093611 q 0.134056,0 0.1905,0.0635 0.0635,0.0565 0.0635,0.1905 v 1.62278 h 0.282223 l 0.726722,-1.64394 q 0.04939,-0.127 0.134055,-0.17639 0.08467,-0.0564 0.218723,-0.0564 h 1.086555 q 0.119945,0 0.162278,0.0635 0.04233,0.0565 -0.0071,0.16934 l -0.719666,1.64394 q 0.395111,0.0212 0.627944,0.28222 0.239889,0.254 0.239889,0.67734 v 1.98966 q 0,0.13406 -0.0635,0.19756 -0.05644,0.0564 -0.1905,0.0564 h -1.086555 q -0.134056,0 -0.197556,-0.0564 -0.05644,-0.0635 -0.05644,-0.19756 v -1.37583 q 0,-0.11289 -0.05644,-0.17639 -0.05644,-0.0635 -0.169333,-0.0635 h -0.931334 v 1.61572 q 0,0.13406 -0.0635,0.19756 -0.05644,0.0564 -0.1905,0.0564 z" />
      <path
         id="path128"
         style="stroke-width:0.26458332"
         d="m 86.037042,278.24728 q -0.134055,0 -0.197555,-0.0564 -0.05645,-0.0635 -0.05645,-0.19756 v -0.83961 q 0,-0.13405 0.05645,-0.1905 0.0635,-0.0635 0.197555,-0.0635 h 0.6985 v -2.37066 h -0.6985 q -0.134055,0 -0.197555,-0.0565 -0.05645,-0.0635 -0.05645,-0.19755 v -0.85373 q 0,-0.13405 0.05645,-0.1905 0.0635,-0.0635 0.197555,-0.0635 h 3.005667 q 0.134055,0 0.1905,0.0635 0.0635,0.0565 0.0635,0.1905 v 0.85373 q 0,0.13405 -0.0635,0.19755 -0.05644,0.0565 -0.1905,0.0565 H 88.35832 v 2.37066 h 0.684389 q 0.134055,0 0.1905,0.0635 0.0635,0.0564 0.0635,0.1905 v 0.83961 q 0,0.13406 -0.0635,0.19756 -0.05644,0.0564 -0.1905,0.0564 z" />
      <path
         id="path130"
         style="stroke-width:0.26458332"
         d="m 92.566739,278.24728 h -1.143 q -0.134055,0 -0.197555,-0.0564 -0.05644,-0.0635 -0.05644,-0.19756 v -3.46427 h -1.037167 q -0.134055,0 -0.197555,-0.0565 -0.05644,-0.0635 -0.05644,-0.19755 v -0.85373 q 0,-0.13405 0.05644,-0.1905 0.0635,-0.0635 0.197555,-0.0635 h 3.725334 q 0.134056,0 0.1905,0.0635 0.0635,0.0565 0.0635,0.1905 v 0.85373 q 0,0.13405 -0.0635,0.19755 -0.05644,0.0565 -0.1905,0.0565 h -1.037167 v 3.46427 q 0,0.13406 -0.0635,0.19756 -0.05644,0.0564 -0.1905,0.0564 z" />
      <path
         id="path132"
         style="stroke-width:0.26458332"
         d="m 97.661513,278.24728 h -1.093611 q -0.134056,0 -0.197556,-0.0564 -0.05644,-0.0635 -0.05644,-0.19756 v -4.572 q 0,-0.13405 0.05644,-0.1905 0.0635,-0.0635 0.197556,-0.0635 h 2.159 q 0.959555,0 1.312338,0.381 0.35277,0.381 0.35277,0.99484 v 0.90311 q 0,0.61383 -0.35277,0.99483 -0.352783,0.381 -1.312338,0.381 h -0.811389 v 1.17122 q 0,0.13406 -0.0635,0.19756 -0.05644,0.0564 -0.1905,0.0564 z m 0.239889,-3.76061 v 1.06539 h 0.635 q 0.204611,0 0.268111,-0.10583 0.0635,-0.10584 0.0635,-0.23989 v -0.37395 q 0,-0.13405 -0.0635,-0.23988 -0.0635,-0.10584 -0.268111,-0.10584 z" />
      <path
         id="path134"
         style="stroke-width:0.26458332"
         d="m 104.96853,278.24728 h -3.59128 q -0.13405,0 -0.19755,-0.0564 -0.0564,-0.0635 -0.0564,-0.19756 v -4.572 q 0,-0.13405 0.0564,-0.1905 0.0635,-0.0635 0.19755,-0.0635 h 1.09362 q 0.13405,0 0.1905,0.0635 0.0635,0.0565 0.0635,0.1905 v 3.4925 h 0.96661 v -1.143 q 0,-0.13405 0.0564,-0.1905 0.0635,-0.0635 0.19756,-0.0635 h 1.02305 q 0.13406,0 0.1905,0.0635 0.0635,0.0564 0.0635,0.1905 v 2.2225 q 0,0.13406 -0.0635,0.19756 -0.0564,0.0564 -0.1905,0.0564 z" />
      <path
         id="path136"
         style="stroke-width:0.26458332"
         d="m 110.35413,276.91378 q 0,0.32456 -0.0988,0.59267 -0.0917,0.26106 -0.33867,0.45156 -0.23989,0.18344 -0.66322,0.28927 -0.42333,0.10584 -1.0795,0.10584 -0.65617,0 -1.0795,-0.10584 -0.42333,-0.10583 -0.67028,-0.28927 -0.23989,-0.1905 -0.33867,-0.45156 -0.0917,-0.26811 -0.0917,-0.59267 v -3.4925 q 0,-0.13405 0.0564,-0.1905 0.0635,-0.0635 0.19755,-0.0635 h 1.10772 q 0.13406,0 0.1905,0.0635 0.0635,0.0565 0.0635,0.1905 v 3.21734 q 0,0.14111 0.10584,0.23989 0.10583,0.0917 0.47272,0.0917 0.37394,0 0.47978,-0.0917 0.10583,-0.0988 0.10583,-0.23989 v -3.21734 q 0,-0.13405 0.0564,-0.1905 0.0635,-0.0635 0.19755,-0.0635 h 1.07245 q 0.13405,0 0.1905,0.0635 0.0635,0.0565 0.0635,0.1905 z" />
      <path
         id="path138"
         style="stroke-width:0.26458332"
         d="m 115.17373,278.24728 h -2.2225 q -0.88194,0 -1.31233,-0.35277 -0.42333,-0.35278 -0.42333,-1.08656 v -2.20133 q 0,-0.73378 0.42333,-1.08656 0.43039,-0.35278 1.31233,-0.35278 h 1.76389 q 0.13406,0 0.1905,0.0635 0.0635,0.0565 0.0635,0.1905 v 0.85373 q 0,0.13405 -0.0635,0.19755 -0.0564,0.0565 -0.1905,0.0565 h -1.46755 q -0.21873,0 -0.32456,0.0917 -0.10583,0.0847 -0.10583,0.26105 v 1.68628 q 0,0.17639 0.0776,0.26106 0.0847,0.0847 0.24694,0.0847 h 0.68439 v -1.10066 q 0,-0.13406 0.0564,-0.1905 0.0635,-0.0635 0.19755,-0.0635 h 1.09361 q 0.13406,0 0.1905,0.0635 0.0635,0.0564 0.0635,0.1905 v 2.18016 q 0,0.13406 -0.0635,0.19756 -0.0564,0.0564 -0.1905,0.0564 z" />
      <path
         id="path140"
         style="stroke-width:0.26458332"
         d="m 116.43656,278.24728 q -0.13405,0 -0.19755,-0.0564 -0.0564,-0.0635 -0.0564,-0.19756 v -0.83961 q 0,-0.13405 0.0564,-0.1905 0.0635,-0.0635 0.19755,-0.0635 h 0.6985 v -2.37066 h -0.6985 q -0.13405,0 -0.19755,-0.0565 -0.0564,-0.0635 -0.0564,-0.19755 v -0.85373 q 0,-0.13405 0.0564,-0.1905 0.0635,-0.0635 0.19755,-0.0635 h 3.00567 q 0.13406,0 0.1905,0.0635 0.0635,0.0565 0.0635,0.1905 v 0.85373 q 0,0.13405 -0.0635,0.19755 -0.0564,0.0565 -0.1905,0.0565 h -0.68439 v 2.37066 h 0.68439 q 0.13406,0 0.1905,0.0635 0.0635,0.0564 0.0635,0.1905 v 0.83961 q 0,0.13406 -0.0635,0.19756 -0.0564,0.0564 -0.1905,0.0564 z" />
      <path
         id="path142"
         style="stroke-width:0.26458332"
         d="m 121.87971,278.24728 h -1.05834 q -0.13405,0 -0.19755,-0.0564 -0.0564,-0.0635 -0.0564,-0.19756 v -4.572 q 0,-0.13405 0.0564,-0.1905 0.0635,-0.0635 0.19755,-0.0635 h 0.73378 q 0.13406,0 0.22578,0.0423 0.0988,0.0423 0.1905,0.14816 l 1.36878,1.56634 v -1.50284 q 0,-0.13405 0.0564,-0.1905 0.0635,-0.0635 0.19756,-0.0635 h 1.05833 q 0.13406,0 0.1905,0.0635 0.0635,0.0565 0.0635,0.1905 v 4.572 q 0,0.13406 -0.0635,0.19756 -0.0564,0.0564 -0.1905,0.0564 h -1.05833 q -0.13406,0 -0.19756,-0.0564 -0.0564,-0.0635 -0.0564,-0.19756 v -0.86783 l -1.2065,-1.4605 v 2.32833 q 0,0.13406 -0.0635,0.19756 -0.0564,0.0564 -0.1905,0.0564 z" />
      <path
         id="path144"
         style="stroke-width:0.26458332"
         d="m 128.24316,278.24728 h -2.22956 q -0.13405,0 -0.19755,-0.0564 -0.0564,-0.0635 -0.0564,-0.19756 v -0.8255 q 0,-0.13405 0.0564,-0.1905 0.0635,-0.0635 0.19755,-0.0635 h 1.89795 q 0.0917,0 0.13405,-0.0564 0.0494,-0.0635 0.0494,-0.14817 0,-0.11994 -0.0494,-0.17639 -0.0423,-0.0564 -0.13405,-0.0635 l -1.05834,-0.14816 q -0.49389,-0.0706 -0.79727,-0.32456 -0.29634,-0.254 -0.29634,-0.84667 v -0.74083 q 0,-0.59972 0.38806,-0.91722 0.38805,-0.32456 1.07244,-0.32456 h 1.97556 q 0.13405,0 0.1905,0.0635 0.0635,0.0565 0.0635,0.1905 v 0.83961 q 0,0.13406 -0.0635,0.19756 -0.0564,0.0564 -0.1905,0.0564 h -1.64395 q -0.0917,0 -0.14111,0.0635 -0.0494,0.0564 -0.0494,0.14817 0,0.0917 0.0494,0.15522 0.0494,0.0635 0.14111,0.0706 l 1.05128,0.14111 q 0.49389,0.0706 0.79728,0.32456 0.30339,0.254 0.30339,0.84666 v 0.74084 q 0,0.59972 -0.39511,0.92427 -0.38806,0.3175 -1.06539,0.3175 z" />
      <path
         id="path146"
         style="stroke-width:0.26458332"
         d="m 133.36549,278.24728 h -1.05128 q -0.13405,0 -0.19755,-0.0564 -0.0564,-0.0635 -0.0564,-0.19756 v -4.572 q 0,-0.13405 0.0564,-0.1905 0.0635,-0.0635 0.19755,-0.0635 h 1.13595 q 0.11289,0 0.18344,0.0494 0.0776,0.0494 0.14111,0.16228 l 0.635,1.15006 q 0.0353,0.0635 0.0565,0.0917 0.0282,0.0282 0.0705,0.0282 h 0.0635 q 0.0423,0 0.0635,-0.0282 0.0282,-0.0282 0.0635,-0.0917 l 0.62795,-1.15006 q 0.0635,-0.11289 0.13405,-0.16228 0.0776,-0.0494 0.1905,-0.0494 h 1.143 q 0.13406,0 0.1905,0.0635 0.0635,0.0565 0.0635,0.1905 v 4.572 q 0,0.13406 -0.0635,0.19756 -0.0564,0.0564 -0.1905,0.0564 h -1.08655 q -0.13406,0 -0.19756,-0.0564 -0.0564,-0.0635 -0.0564,-0.19756 v -2.48355 l -0.41628,0.76905 q -0.0635,0.11995 -0.15522,0.17639 -0.0847,0.0494 -0.21872,0.0494 h -0.28223 q -0.13405,0 -0.22577,-0.0494 -0.0847,-0.0564 -0.14817,-0.17639 l -0.41628,-0.76905 v 2.48355 q 0,0.13406 -0.0635,0.19756 -0.0564,0.0564 -0.1905,0.0564 z" />
      <path
         id="path148"
         style="stroke-width:0.26458332"
         d="m 139.89618,274.64895 -0.33161,1.07244 h 1.10772 l -0.33161,-1.07244 q -0.0282,-0.0635 -0.0635,-0.0917 -0.0282,-0.0282 -0.0705,-0.0282 h -0.17639 q -0.0423,0 -0.0776,0.0282 -0.0282,0.0282 -0.0565,0.0917 z m -0.40217,3.34433 q 0,0.13406 -0.0635,0.19756 -0.0564,0.0564 -0.1905,0.0564 h -1.03716 q -0.13406,0 -0.19756,-0.0564 -0.0564,-0.0635 -0.0564,-0.19756 v -1.86266 q 0,-0.21167 0.0635,-0.48684 0.0705,-0.27516 0.21166,-0.64205 l 0.61384,-1.60161 q 0.0423,-0.11995 0.127,-0.17639 0.0917,-0.0564 0.23283,-0.0564 h 1.89795 q 0.13405,0 0.21872,0.0564 0.0917,0.0564 0.13405,0.17639 l 0.61384,1.60161 q 0.14111,0.36689 0.20461,0.64205 0.0705,0.27517 0.0705,0.48684 v 1.86266 q 0,0.13406 -0.0635,0.19756 -0.0564,0.0564 -0.1905,0.0564 h -1.06538 q -0.14112,0 -0.21167,-0.0564 -0.0635,-0.0635 -0.0635,-0.19756 v -0.98777 h -1.24884 z" />
      <path
         id="path150"
         style="stroke-width:0.26458332"
         d="m 145.84027,278.24728 h -2.37773 q -0.13405,0 -0.19755,-0.0564 -0.0565,-0.0635 -0.0565,-0.19756 v -4.572 q 0,-0.13405 0.0565,-0.1905 0.0635,-0.0635 0.19755,-0.0635 h 2.37773 q 0.88194,0 1.30527,0.35278 0.43039,0.35278 0.43039,1.08656 v 2.20133 q 0,0.73378 -0.43039,1.08656 -0.42333,0.35277 -1.30527,0.35277 z m -1.03012,-3.73239 v 2.39889 h 0.83962 q 0.16933,0 0.24694,-0.0847 0.0847,-0.0847 0.0847,-0.26106 v -1.7145 q 0,-0.17639 -0.0847,-0.254 -0.0776,-0.0847 -0.24694,-0.0847 z" />
      <path
         id="path152"
         style="stroke-width:0.26458332"
         d="m 152.00043,278.24728 h -3.27378 q -0.13406,0 -0.19756,-0.0564 -0.0564,-0.0635 -0.0564,-0.19756 v -4.572 q 0,-0.13405 0.0564,-0.1905 0.0635,-0.0635 0.19756,-0.0635 h 3.27378 q 0.13405,0 0.1905,0.0635 0.0635,0.0565 0.0635,0.1905 v 0.8255 q 0,0.13406 -0.0635,0.19756 -0.0565,0.0564 -0.1905,0.0564 h -1.94734 v 0.54328 h 1.37584 q 0.13405,0 0.1905,0.0635 0.0635,0.0565 0.0635,0.1905 v 0.75495 q 0,0.13405 -0.0635,0.19755 -0.0564,0.0564 -0.1905,0.0564 h -1.37584 v 0.60677 h 1.94734 q 0.13405,0 0.1905,0.0635 0.0635,0.0564 0.0635,0.1905 v 0.8255 q 0,0.13406 -0.0635,0.19756 -0.0565,0.0564 -0.1905,0.0564 z" />
      <path
         id="path154"
         style="stroke-width:0.26458332"
         d="m 158.2016,278.24728 h -3.27378 q -0.13405,0 -0.19755,-0.0564 -0.0564,-0.0635 -0.0564,-0.19756 v -4.572 q 0,-0.13405 0.0564,-0.1905 0.0635,-0.0635 0.19755,-0.0635 h 3.27378 q 0.13406,0 0.1905,0.0635 0.0635,0.0565 0.0635,0.1905 v 0.8255 q 0,0.13406 -0.0635,0.19756 -0.0564,0.0564 -0.1905,0.0564 h -1.94733 v 0.54328 h 1.37583 q 0.13406,0 0.1905,0.0635 0.0635,0.0565 0.0635,0.1905 v 0.75495 q 0,0.13405 -0.0635,0.19755 -0.0564,0.0564 -0.1905,0.0564 h -1.37583 v 0.60677 h 1.94733 q 0.13406,0 0.1905,0.0635 0.0635,0.0564 0.0635,0.1905 v 0.8255 q 0,0.13406 -0.0635,0.19756 -0.0564,0.0564 -0.1905,0.0564 z" />
      <path
         id="path156"
         style="stroke-width:0.26458332"
         d="m 161.13175,274.64895 -0.33161,1.07244 h 1.10772 l -0.33161,-1.07244 q -0.0282,-0.0635 -0.0635,-0.0917 -0.0282,-0.0282 -0.0706,-0.0282 h -0.17639 q -0.0423,0 -0.0776,0.0282 -0.0282,0.0282 -0.0564,0.0917 z m -0.40217,3.34433 q 0,0.13406 -0.0635,0.19756 -0.0564,0.0564 -0.1905,0.0564 h -1.03717 q -0.13405,0 -0.19755,-0.0564 -0.0564,-0.0635 -0.0564,-0.19756 v -1.86266 q 0,-0.21167 0.0635,-0.48684 0.0706,-0.27516 0.21167,-0.64205 l 0.61383,-1.60161 q 0.0423,-0.11995 0.127,-0.17639 0.0917,-0.0564 0.23284,-0.0564 h 1.89794 q 0.13406,0 0.21872,0.0564 0.0917,0.0564 0.13406,0.17639 l 0.61383,1.60161 q 0.14111,0.36689 0.20461,0.64205 0.0706,0.27517 0.0706,0.48684 v 1.86266 q 0,0.13406 -0.0635,0.19756 -0.0564,0.0564 -0.1905,0.0564 h -1.06539 q -0.14111,0 -0.21167,-0.0564 -0.0635,-0.0635 -0.0635,-0.19756 v -0.98777 h -1.24883 z" />
      <path
         id="path158"
         style="stroke-width:0.26458332"
         d="m 166.80066,278.24728 h -2.22955 q -0.13406,0 -0.19756,-0.0564 -0.0564,-0.0635 -0.0564,-0.19756 v -0.8255 q 0,-0.13405 0.0564,-0.1905 0.0635,-0.0635 0.19756,-0.0635 h 1.89794 q 0.0917,0 0.13406,-0.0564 0.0494,-0.0635 0.0494,-0.14817 0,-0.11994 -0.0494,-0.17639 -0.0423,-0.0564 -0.13406,-0.0635 l -1.05833,-0.14816 q -0.49389,-0.0706 -0.79728,-0.32456 -0.29633,-0.254 -0.29633,-0.84667 v -0.74083 q 0,-0.59972 0.38805,-0.91722 0.38806,-0.32456 1.07245,-0.32456 h 1.97555 q 0.13406,0 0.1905,0.0635 0.0635,0.0565 0.0635,0.1905 v 0.83961 q 0,0.13406 -0.0635,0.19756 -0.0564,0.0564 -0.1905,0.0564 h -1.64394 q -0.0917,0 -0.14111,0.0635 -0.0494,0.0564 -0.0494,0.14817 0,0.0917 0.0494,0.15522 0.0494,0.0635 0.14111,0.0706 l 1.05128,0.14111 q 0.49389,0.0706 0.79728,0.32456 0.30338,0.254 0.30338,0.84666 v 0.74084 q 0,0.59972 -0.39511,0.92427 -0.38805,0.3175 -1.06539,0.3175 z" />
      <path
         id="path160"
         style="stroke-width:0.26458332"
         d="m 171.53935,278.24728 h -1.143 q -0.13405,0 -0.19755,-0.0564 -0.0565,-0.0635 -0.0565,-0.19756 v -0.90311 l -1.0795,-1.44639 q -0.16228,-0.21872 -0.21872,-0.381 -0.0494,-0.16227 -0.0494,-0.48683 v -1.35467 q 0,-0.13405 0.0565,-0.1905 0.0635,-0.0635 0.19755,-0.0635 h 1.08656 q 0.13405,0 0.1905,0.0635 0.0635,0.0565 0.0635,0.1905 v 1.15711 q 0,0.0706 0.007,0.14817 0.007,0.0776 0.0564,0.14817 l 0.32455,0.508 q 0.0353,0.0635 0.0706,0.0917 0.0423,0.0282 0.0988,0.0282 h 0.0705 q 0.0565,0 0.0917,-0.0282 0.0423,-0.0282 0.0776,-0.0917 l 0.32456,-0.508 q 0.0494,-0.0706 0.0564,-0.14817 0.007,-0.0776 0.007,-0.14817 v -1.15711 q 0,-0.13405 0.0564,-0.1905 0.0635,-0.0635 0.19756,-0.0635 h 1.05128 q 0.13405,0 0.1905,0.0635 0.0635,0.0565 0.0635,0.1905 v 1.35467 q 0,0.32456 -0.0564,0.48683 -0.0564,0.16228 -0.21166,0.381 l -1.07245,1.45345 v 0.89605 q 0,0.13406 -0.0635,0.19756 -0.0564,0.0564 -0.1905,0.0564 z" />
    </g>
  </g>
</svg>
